<?xml version="1.0" encoding="UTF-8" standalone="no"?>
<!-- Created with Inkscape (http://www.inkscape.org/) -->

<svg
   xmlns:dc="http://purl.org/dc/elements/1.1/"
   xmlns:cc="http://creativecommons.org/ns#"
   xmlns:rdf="http://www.w3.org/1999/02/22-rdf-syntax-ns#"
   xmlns:svg="http://www.w3.org/2000/svg"
   xmlns="http://www.w3.org/2000/svg"
   xmlns:sodipodi="http://sodipodi.sourceforge.net/DTD/sodipodi-0.dtd"
   xmlns:inkscape="http://www.inkscape.org/namespaces/inkscape"
   width="210mm"
   height="297mm"
   id="svg3313"
   version="1.1"
   inkscape:version="0.48.4 r9939"
   sodipodi:docname="WordPress-Reasons_Editable_pt_BR.svg"
   inkscape:export-filename="/home/soares/Documentos/Lampso/WordPress/WP-Reasons/pt_BR/WordPress-Reasons_pt_BR.png"
   inkscape:export-xdpi="90"
   inkscape:export-ydpi="90">
  <defs
     id="defs3315">
    <clipPath
       clipPathUnits="userSpaceOnUse"
       id="clipPath176">
      <path
         inkscape:connector-curvature="0"
         d="M 0,0 612,0 612,792 0,792 0,0 z"
         id="path178" />
    </clipPath>
    <clipPath
       clipPathUnits="userSpaceOnUse"
       id="clipPath264">
      <path
         inkscape:connector-curvature="0"
         d="M 0,0 612,0 612,792 0,792 0,0 z"
         id="path266" />
    </clipPath>
    <clipPath
       clipPathUnits="userSpaceOnUse"
       id="clipPath176-8">
      <path
         inkscape:connector-curvature="0"
         d="M 0,0 612,0 612,792 0,792 0,0 z"
         id="path178-3" />
    </clipPath>
  </defs>
  <sodipodi:namedview
     id="base"
     pagecolor="#ffffff"
     bordercolor="#666666"
     borderopacity="1.0"
     inkscape:pageopacity="0.0"
     inkscape:pageshadow="2"
     inkscape:zoom="0.35"
     inkscape:cx="-94.847805"
     inkscape:cy="585.71668"
     inkscape:document-units="px"
     inkscape:current-layer="layer1"
     showgrid="false"
     inkscape:window-width="1366"
     inkscape:window-height="744"
     inkscape:window-x="0"
     inkscape:window-y="24"
     inkscape:window-maximized="1" />
  <metadata
     id="metadata3318">
    <rdf:RDF>
      <cc:Work
         rdf:about="">
        <dc:format>image/svg+xml</dc:format>
        <dc:type
           rdf:resource="http://purl.org/dc/dcmitype/StillImage" />
        <dc:title></dc:title>
      </cc:Work>
    </rdf:RDF>
  </metadata>
  <g
     inkscape:label="Camada 1"
     inkscape:groupmode="layer"
     id="layer1">
    <text
       xml:space="preserve"
       style="font-size:13.75px;font-style:normal;font-variant:normal;font-weight:bold;font-stretch:normal;line-height:125%;letter-spacing:0px;word-spacing:0px;fill:#000000;fill-opacity:1;stroke:none;font-family:Open Sans;-inkscape-font-specification:Sans Bold"
       x="466.94302"
       y="864.22125"
       id="text4080"
       sodipodi:linespacing="125%"><tspan
         sodipodi:role="line"
         id="tspan4082"
         x="466.94302"
         y="864.22125">Escale do pequeno ao empresarial</tspan></text>
    <text
       xml:space="preserve"
       style="font-size:13.75px;font-style:normal;font-variant:normal;font-weight:bold;font-stretch:normal;line-height:125%;letter-spacing:0px;word-spacing:0px;fill:#000000;fill-opacity:1;stroke:none;font-family:Open Sans;-inkscape-font-specification:Sans Bold"
       x="85.087402"
       y="864.00031"
       id="text4076"
       sodipodi:linespacing="125%"><tspan
         sodipodi:role="line"
         id="tspan4078"
         x="85.087402"
         y="864.00031">Extensivo, suportado pela comunidade</tspan></text>
    <text
       xml:space="preserve"
       style="font-size:13.75px;font-style:normal;font-variant:normal;font-weight:bold;font-stretch:normal;line-height:125%;letter-spacing:0px;word-spacing:0px;fill:#000000;fill-opacity:1;stroke:none;font-family:Open Sans;-inkscape-font-specification:Sans Bold"
       x="466.57166"
       y="541.28815"
       id="text4064"
       sodipodi:linespacing="125%"><tspan
         sodipodi:role="line"
         id="tspan4066"
         x="466.57166"
         y="541.28815">Acessível por qualquer usuário</tspan></text>
    <path
       inkscape:connector-curvature="0"
       d="m -0.27420249,167.49074 746.43844249,0 0,-167.39998642 -746.43844249,0 0,167.39998642 z"
       style="fill:#464342;fill-opacity:1;fill-rule:nonzero;stroke:none"
       id="path12" />
    <path
       inkscape:connector-curvature="0"
       d="m 0.34781758,505.15238 744.21393242,0 0,-157.5 -744.21393242,0 0,157.5 z"
       style="fill:#ececec;fill-opacity:1;fill-rule:nonzero;stroke:none"
       id="path14" />
    <text
       xml:space="preserve"
       style="font-size:13.75px;font-style:normal;font-variant:normal;font-weight:bold;font-stretch:normal;line-height:125%;letter-spacing:0px;word-spacing:0px;fill:#000000;fill-opacity:1;stroke:none;font-family:Open Sans;-inkscape-font-specification:Sans Bold"
       x="84.852806"
       y="382.12598"
       id="text4052"
       sodipodi:linespacing="125%"><tspan
         sodipodi:role="line"
         id="tspan4054"
         x="84.852806"
         y="382.12598">Fácil de usar</tspan></text>
    <path
       inkscape:connector-curvature="0"
       d="m 0.34781758,820.15238 744.21393242,0 0,-157.5 -744.21393242,0 0,157.5 z"
       style="fill:#ececec;fill-opacity:1;fill-rule:nonzero;stroke:none"
       id="path16" />
    <text
       xml:space="preserve"
       style="font-size:13.75px;font-style:normal;font-variant:normal;font-weight:bold;font-stretch:normal;line-height:125%;letter-spacing:0px;word-spacing:0px;fill:#000000;fill-opacity:1;stroke:none;font-family:Open Sans;-inkscape-font-specification:Sans Bold"
       x="465.77271"
       y="699.16681"
       id="text4072"
       sodipodi:linespacing="125%"><tspan
         sodipodi:role="line"
         id="tspan4074"
         x="465.77271"
         y="699.16681">Compartilhe e eleve sua audiência</tspan></text>
    <text
       xml:space="preserve"
       style="font-size:13.75px;font-style:normal;font-variant:normal;font-weight:bold;font-stretch:normal;line-height:125%;letter-spacing:0px;word-spacing:0px;fill:#000000;fill-opacity:1;stroke:none;font-family:Open Sans;-inkscape-font-specification:Sans Bold"
       x="85.122559"
       y="699.56018"
       id="text4068"
       sodipodi:linespacing="125%"><tspan
         sodipodi:role="line"
         id="tspan4070"
         x="85.122559"
         y="699.56018">Segurança é foco no WordPress</tspan></text>
    <text
       xml:space="preserve"
       style="font-size:13.75px;font-style:normal;font-variant:normal;font-weight:bold;font-stretch:normal;line-height:125%;letter-spacing:0px;word-spacing:0px;fill:#000000;fill-opacity:1;stroke:none;font-family:Open Sans;-inkscape-font-specification:Sans Bold"
       x="84.852814"
       y="230.09801"
       id="text4044"
       sodipodi:linespacing="125%"><tspan
         sodipodi:role="line"
         id="tspan4046"
         x="84.852814"
         y="230.09801">Código aberto e para sempre livre</tspan></text>
    <text
       xml:space="preserve"
       style="font-size:13.75px;font-style:normal;font-variant:normal;font-weight:bold;font-stretch:normal;line-height:125%;letter-spacing:0px;word-spacing:0px;fill:#000000;fill-opacity:1;stroke:none;font-family:Open Sans;-inkscape-font-specification:Sans Bold"
       x="85.357895"
       y="541.22498"
       id="text4060"
       sodipodi:linespacing="125%"><tspan
         sodipodi:role="line"
         id="tspan4062"
         x="85.357895"
         y="541.22498">Uma plataforma, muitas possibilidades</tspan></text>
    <text
       xml:space="preserve"
       style="font-size:13.75px;font-style:normal;font-variant:normal;font-weight:bold;font-stretch:normal;line-height:125%;letter-spacing:0px;word-spacing:0px;fill:#000000;fill-opacity:1;stroke:none;font-family:Open Sans;-inkscape-font-specification:Sans Bold"
       x="373.52783"
       y="187.16653"
       id="text4040"
       sodipodi:linespacing="125%"><tspan
         sodipodi:role="line"
         id="tspan4042"
         x="373.52783"
         y="187.16653"
         style="text-align:center;text-anchor:middle">WordPress mantém mais de 25% da web. Aqui está porque WordPress é o melhor para você.</tspan></text>
    <g
       transform="matrix(1.25,0,0,-1.25,1.3579701,992.65238)"
       clip-path="url(#clipPath176-8)"
       id="g174">
      <g
         transform="translate(37.44,562.8)"
         id="g180">
        <path
           inkscape:connector-curvature="0"
           id="path182"
           style="fill:#00759a;fill-opacity:1;fill-rule:nonzero;stroke:none"
           d="M 0,0 C 7.953,0 14.4,6.447 14.4,14.4 14.4,22.353 7.953,28.8 0,28.8 -7.953,28.8 -14.4,22.353 -14.4,14.4 -14.4,6.447 -7.953,0 0,0" />
      </g>
      <g
         transform="translate(37.44,436.66)"
         id="g184">
        <path
           inkscape:connector-curvature="0"
           id="path186"
           style="fill:#00759a;fill-opacity:1;fill-rule:nonzero;stroke:none"
           d="M 0,0 C 7.953,0 14.4,6.447 14.4,14.4 14.4,22.353 7.953,28.8 0,28.8 -7.953,28.8 -14.4,22.353 -14.4,14.4 -14.4,6.447 -7.953,0 0,0" />
      </g>
      <g
         transform="translate(37.44,310.08)"
         id="g188">
        <path
           inkscape:connector-curvature="0"
           id="path190"
           style="fill:#00759a;fill-opacity:1;fill-rule:nonzero;stroke:none"
           d="M 0,0 C 7.953,0 14.4,6.447 14.4,14.4 14.4,22.353 7.953,28.8 0,28.8 -7.953,28.8 -14.4,22.353 -14.4,14.4 -14.4,6.447 -7.953,0 0,0" />
      </g>
      <g
         transform="translate(37.44,185.94)"
         id="g192">
        <path
           inkscape:connector-curvature="0"
           id="path194"
           style="fill:#00759a;fill-opacity:1;fill-rule:nonzero;stroke:none"
           d="M 0,0 C 7.953,0 14.4,6.447 14.4,14.4 14.4,22.353 7.953,28.8 0,28.8 -7.953,28.8 -14.4,22.353 -14.4,14.4 -14.4,6.447 -7.953,0 0,0" />
      </g>
      <g
         transform="translate(37.44,54.08)"
         id="g196">
        <path
           inkscape:connector-curvature="0"
           id="path198"
           style="fill:#00759a;fill-opacity:1;fill-rule:nonzero;stroke:none"
           d="M 0,0 C 7.953,0 14.4,6.447 14.4,14.4 14.4,22.353 7.953,28.8 0,28.8 -7.953,28.8 -14.4,22.353 -14.4,14.4 -14.4,6.447 -7.953,0 0,0" />
      </g>
      <g
         transform="translate(342,182.94)"
         id="g200">
        <path
           inkscape:connector-curvature="0"
           id="path202"
           style="fill:#00759a;fill-opacity:1;fill-rule:nonzero;stroke:none"
           d="M 0,0 C 7.953,0 14.4,6.447 14.4,14.4 14.4,22.353 7.953,28.8 0,28.8 -7.953,28.8 -14.4,22.353 -14.4,14.4 -14.4,6.447 -7.953,0 0,0" />
      </g>
      <g
         transform="translate(342,54.08)"
         id="g204">
        <path
           inkscape:connector-curvature="0"
           id="path206"
           style="fill:#00759a;fill-opacity:1;fill-rule:nonzero;stroke:none"
           d="M 0,0 C 7.953,0 14.4,6.447 14.4,14.4 14.4,22.353 7.953,28.8 0,28.8 -7.953,28.8 -14.4,22.353 -14.4,14.4 -14.4,6.447 -7.953,0 0,0" />
      </g>
      <g
         transform="translate(342,312.6)"
         id="g208">
        <path
           inkscape:connector-curvature="0"
           id="path210"
           style="fill:#00759a;fill-opacity:1;fill-rule:nonzero;stroke:none"
           d="M 0,0 C 7.953,0 14.4,6.447 14.4,14.4 14.4,22.353 7.953,28.8 0,28.8 -7.953,28.8 -14.4,22.353 -14.4,14.4 -14.4,6.447 -7.953,0 0,0" />
      </g>
      <g
         transform="translate(342,436.66)"
         id="g212">
        <path
           inkscape:connector-curvature="0"
           id="path214"
           style="fill:#00759a;fill-opacity:1;fill-rule:nonzero;stroke:none"
           d="M 0,0 C 7.953,0 14.4,6.447 14.4,14.4 14.4,22.353 7.953,28.8 0,28.8 -7.953,28.8 -14.4,22.353 -14.4,14.4 -14.4,6.447 -7.953,0 0,0" />
      </g>
      <g
         transform="translate(342,562.8)"
         id="g216">
        <path
           inkscape:connector-curvature="0"
           id="path218"
           style="fill:#00759a;fill-opacity:1;fill-rule:nonzero;stroke:none"
           d="M 0,0 C 7.953,0 14.4,6.447 14.4,14.4 14.4,22.353 7.953,28.8 0,28.8 -7.953,28.8 -14.4,22.353 -14.4,14.4 -14.4,6.447 -7.953,0 0,0" />
      </g>
      <g
         transform="translate(325.6857,723.0154)"
         id="g220">
        <path
           inkscape:connector-curvature="0"
           id="path222"
           style="fill:#ffffff;fill-opacity:1;fill-rule:nonzero;stroke:none"
           d="m 0,0 -14.389,0 0,-1.527 c 4.501,0 5.225,-0.964 5.225,-6.672 l 0,-10.289 c 0,-5.707 -0.724,-6.752 -5.225,-6.752 -3.456,0.482 -5.787,2.331 -9.003,5.868 l -3.697,4.019 c 4.983,0.884 7.636,4.019 7.636,7.557 0,4.42 -3.777,7.796 -10.851,7.796 l -14.148,0 0,-1.527 c 4.501,0 5.224,-0.964 5.224,-6.672 l 0,-10.289 c 0,-5.707 -0.723,-6.752 -5.224,-6.752 l 0,-1.527 15.996,0 0,1.527 c -4.501,0 -5.224,1.045 -5.224,6.752 l 0,2.893 1.366,0 8.922,-11.172 23.392,0 c 11.495,0 16.479,6.108 16.479,13.424 C 16.479,-6.029 11.495,0 0,0 m -33.68,-13.102 0,10.691 3.295,0 c 3.617,0 5.225,-2.492 5.225,-5.385 0,-2.814 -1.608,-5.306 -5.225,-5.306 l -3.295,0 z m 33.921,-11.174 -0.563,0 c -2.894,0 -3.295,0.724 -3.295,4.422 l 0,17.443 3.858,0 c 8.36,0 9.887,-6.109 9.887,-10.852 0,-4.904 -1.527,-11.013 -9.887,-11.013" />
      </g>
      <g
         transform="translate(236.4614,706.9385)"
         id="g224">
        <path
           inkscape:connector-curvature="0"
           id="path226"
           style="fill:#ffffff;fill-opacity:1;fill-rule:nonzero;stroke:none"
           d="m 0,0 5.546,16.4 c 1.609,4.742 0.885,6.108 -4.26,6.108 l 0,1.608 15.113,0 0,-1.608 c -5.064,0 -6.27,-1.206 -8.28,-7.074 l -9.164,-27.491 -1.045,0 -8.199,25.16 -8.36,-25.16 -1.045,0 -8.922,27.491 c -1.93,5.868 -3.216,7.074 -7.878,7.074 l 0,1.608 17.845,0 0,-1.608 c -4.743,0 -6.029,-1.125 -4.34,-6.108 l 5.385,-16.4 8.119,24.116 1.527,0 L 0,0 z" />
      </g>
      <g
         transform="translate(263.7905,695.2031)"
         id="g228">
        <path
           inkscape:connector-curvature="0"
           id="path230"
           style="fill:#ffffff;fill-opacity:1;fill-rule:nonzero;stroke:none"
           d="m 0,0 c -8.842,0 -16.077,6.511 -16.077,14.47 0,7.877 7.235,14.389 16.077,14.389 8.843,0 16.077,-6.512 16.077,-14.389 C 16.077,6.511 8.843,0 0,0 m 0,26.365 c -7.395,0 -9.968,-6.671 -9.968,-11.895 0,-5.307 2.573,-11.898 9.968,-11.898 7.476,0 10.048,6.591 10.048,11.898 0,5.224 -2.572,11.895 -10.048,11.895" />
      </g>
      <g
         transform="translate(362.0179,697.8557)"
         id="g232">
        <path
           inkscape:connector-curvature="0"
           id="path234"
           style="fill:#ffffff;fill-opacity:1;fill-rule:nonzero;stroke:none"
           d="m 0,0 0,-1.607 -18.408,0 0,1.607 c 5.386,0 6.351,1.366 6.351,9.406 l 0,12.86 c 0,8.039 -0.965,9.325 -6.351,9.325 l 0,1.608 16.639,0 c 8.28,0 12.863,-4.261 12.863,-9.969 0,-5.546 -4.583,-9.886 -12.863,-9.886 l -4.581,0 0,-3.938 C -6.35,1.366 -5.386,0 0,0 m -1.769,30.305 -4.581,0 0,-13.987 4.581,0 c 4.502,0 6.592,3.135 6.592,6.912 0,3.859 -2.09,7.075 -6.592,7.075" />
      </g>
      <g
         transform="translate(428.3335,703.8036)"
         id="g236">
        <path
           inkscape:connector-curvature="0"
           id="path238"
           style="fill:#ffffff;fill-opacity:1;fill-rule:nonzero;stroke:none"
           d="M 0,0 -0.402,-1.447 C -1.125,-4.099 -2.01,-5.064 -7.717,-5.064 l -1.126,0 c -4.179,0 -4.902,0.965 -4.902,6.672 l 0,3.697 c 6.27,0 6.752,-0.562 6.752,-4.742 l 1.527,0 0,11.977 -1.527,0 c 0,-4.18 -0.482,-4.742 -6.752,-4.742 l 0,9.002 4.42,0 c 5.708,0 6.592,-0.964 7.315,-3.617 l 0.403,-1.526 1.285,0 -0.562,7.555 -23.633,0 0,-1.527 c 4.501,0 5.224,-0.964 5.224,-6.672 l 0,-10.29 c 0,-5.22 -0.614,-6.535 -4.163,-6.723 -3.373,0.515 -5.689,2.355 -8.857,5.839 l -3.698,4.019 c 4.984,0.885 7.637,4.02 7.637,7.557 0,4.421 -3.778,7.797 -10.852,7.797 l -14.148,0 0,-1.527 c 4.501,0 5.225,-0.964 5.225,-6.672 l 0,-10.29 c 0,-5.706 -0.724,-6.752 -5.225,-6.752 l 0,-1.526 15.997,0 0,1.526 c -4.501,0 -5.225,1.046 -5.225,6.752 l 0,2.894 1.366,0 8.923,-11.172 33.036,0 L 1.206,0 0,0 z m -42.602,6.11 0,10.69 3.295,0 c 3.618,0 5.226,-2.491 5.226,-5.385 0,-2.814 -1.608,-5.305 -5.226,-5.305 l -3.295,0 z" />
      </g>
      <g
         transform="translate(444.6515,695.2031)"
         id="g240">
        <path
           inkscape:connector-curvature="0"
           id="path242"
           style="fill:#ffffff;fill-opacity:1;fill-rule:nonzero;stroke:none"
           d="M 0,0 C -3.216,0 -6.03,1.688 -7.235,2.733 -7.637,2.331 -8.36,1.125 -8.521,0 l -1.527,0 0,11.093 1.607,0 c 0.644,-5.306 4.341,-8.44 9.084,-8.44 2.572,0 4.662,1.446 4.662,3.858 0,2.09 -1.849,3.698 -5.144,5.224 l -4.582,2.171 c -3.216,1.528 -5.627,4.181 -5.627,7.717 0,3.859 3.617,7.154 8.601,7.154 2.653,0 4.903,-0.965 6.27,-2.09 0.402,0.322 0.803,1.207 1.045,2.172 l 1.527,0 0,-9.487 -1.688,0 c -0.563,3.779 -2.653,6.914 -6.913,6.914 -2.251,0 -4.341,-1.287 -4.341,-3.297 0,-2.089 1.688,-3.214 5.547,-4.983 l 4.42,-2.17 C 8.28,13.987 9.806,11.012 9.806,8.601 9.806,3.536 5.385,0 0,0" />
      </g>
      <g
         transform="translate(469.4087,695.2031)"
         id="g244">
        <path
           inkscape:connector-curvature="0"
           id="path246"
           style="fill:#ffffff;fill-opacity:1;fill-rule:nonzero;stroke:none"
           d="M 0,0 C -3.216,0 -6.029,1.688 -7.235,2.733 -7.637,2.331 -8.36,1.125 -8.521,0 l -1.527,0 0,11.093 1.607,0 c 0.644,-5.306 4.341,-8.44 9.084,-8.44 2.572,0 4.662,1.446 4.662,3.858 0,2.09 -1.849,3.698 -5.145,5.224 l -4.581,2.171 c -3.216,1.528 -5.627,4.181 -5.627,7.717 0,3.859 3.617,7.154 8.601,7.154 2.653,0 4.903,-0.965 6.27,-2.09 0.401,0.322 0.803,1.207 1.044,2.172 l 1.528,0 0,-9.487 -1.688,0 c -0.563,3.779 -2.653,6.914 -6.913,6.914 -2.251,0 -4.341,-1.287 -4.341,-3.297 0,-2.089 1.688,-3.214 5.547,-4.983 l 4.42,-2.17 C 8.28,13.987 9.806,11.012 9.806,8.601 9.806,3.536 5.385,0 0,0" />
      </g>
      <g
         transform="translate(165.3511,747.6931)"
         id="g248">
        <path
           inkscape:connector-curvature="0"
           id="path250"
           style="fill:#ffffff;fill-opacity:1;fill-rule:nonzero;stroke:none"
           d="m 0,0 c -17.957,0 -32.566,-14.609 -32.566,-32.565 0,-17.958 14.609,-32.568 32.566,-32.568 17.957,0 32.567,14.61 32.567,32.568 C 32.567,-14.609 17.957,0 0,0 m -29.279,-32.565 c 0,4.245 0.91,8.275 2.535,11.916 l 13.967,-38.267 c -9.768,4.745 -16.502,14.761 -16.502,26.351 M 0,-61.847 c -2.874,0 -5.648,0.421 -8.272,1.193 l 8.786,25.527 8.999,-24.657 c 0.06,-0.144 0.132,-0.278 0.21,-0.403 C 6.68,-61.258 3.41,-61.847 0,-61.847 m 4.035,43.01 c 1.763,0.092 3.351,0.278 3.351,0.278 1.578,0.186 1.392,2.505 -0.187,2.413 0,0 -4.742,-0.372 -7.804,-0.372 -2.877,0 -7.711,0.372 -7.711,0.372 -1.579,0.092 -1.764,-2.32 -0.186,-2.413 0,0 1.494,-0.186 3.071,-0.278 l 4.562,-12.499 -6.409,-19.217 -10.661,31.716 c 1.764,0.092 3.35,0.278 3.35,0.278 1.577,0.186 1.391,2.505 -0.187,2.413 0,0 -4.742,-0.372 -7.803,-0.372 -0.55,0 -1.197,0.013 -1.885,0.035 5.236,7.948 14.234,13.197 24.464,13.197 7.622,0 14.563,-2.914 19.772,-7.687 -0.126,0.007 -0.249,0.023 -0.379,0.023 -2.876,0 -4.917,-2.505 -4.917,-5.196 0,-2.413 1.392,-4.455 2.876,-6.868 1.113,-1.95 2.414,-4.455 2.414,-8.075 0,-2.505 -0.964,-5.413 -2.228,-9.465 l -2.921,-9.758 -10.582,31.475 z m 21.658,0.318 c 2.286,-4.17 3.586,-8.956 3.586,-14.046 0,-10.802 -5.854,-20.233 -14.559,-25.308 l 8.943,25.856 c 1.671,4.178 2.227,7.517 2.227,10.488 0,1.077 -0.071,2.078 -0.197,3.01" />
      </g>
      <g
         transform="translate(37.4396,569.9999)"
         id="g252">
        <path
           inkscape:connector-curvature="0"
           id="path254"
           style="fill:#ffffff;fill-opacity:1;fill-rule:nonzero;stroke:none"
           d="m 0,0 -7.285,6.896 c -1.68,1.59 -1.816,4.312 -0.305,6.078 1.512,1.769 4.099,1.911 5.78,0.322 L 0,11.582 1.809,13.296 c 1.679,1.588 4.268,1.447 5.78,-0.322 C 9.104,11.208 8.965,8.486 7.285,6.895 L 0,0 z" />
      </g>
    </g>
    <text
       xml:space="preserve"
       style="font-size:13.75px;font-style:normal;font-variant:normal;font-weight:bold;font-stretch:normal;line-height:125%;letter-spacing:0px;word-spacing:0px;fill:#000000;fill-opacity:1;stroke:none;font-family:Open Sans;-inkscape-font-specification:Sans Bold"
       x="467.19556"
       y="382.12598"
       id="text4056"
       sodipodi:linespacing="125%"><tspan
         sodipodi:role="line"
         id="tspan4058"
         x="467.19556"
         y="382.12598">Conteúdo em qualquer dispositivo</tspan></text>
    <g
       id="g256"
       transform="matrix(1.25,0,0,-1.25,54.80797,420.27738)">
      <path
         inkscape:connector-curvature="0"
         d="m 0,0 -7.093,-8.107 -3.547,3.04 -2.027,-2.026 4.56,-6.587 2.027,0 L 2.027,-1.52 0,0 z"
         style="fill:#ffffff;fill-opacity:1;fill-rule:nonzero;stroke:none"
         id="path258" />
    </g>
    <g
       transform="matrix(1.25,0,0,-1.25,1.3579701,992.65238)"
       id="g260">
      <g
         id="g262"
         clip-path="url(#clipPath264)">
        <g
           id="g268"
           transform="translate(45.4629,320.0982)">
          <path
             inkscape:connector-curvature="0"
             d="m 0,0 0,1.708 c 0,2.215 -1.797,4.011 -4.011,4.011 l -2.675,0 0,3.045 c 0.797,0.464 1.337,1.317 1.337,2.304 0,1.476 -1.198,2.674 -2.674,2.674 -1.476,0 -2.674,-1.198 -2.674,-2.674 0,-0.987 0.541,-1.84 1.337,-2.304 l 0,-3.045 -2.674,0 c -2.216,0 -4.012,-1.796 -4.012,-4.011 l 0,-1.708 c -0.795,-0.464 -1.337,-1.317 -1.337,-2.304 0,-1.476 1.198,-2.674 2.674,-2.674 1.477,0 2.675,1.198 2.675,2.674 0,0.987 -0.542,1.84 -1.337,2.304 l 0,1.708 c 0,0.739 0.599,1.337 1.337,1.337 l 2.674,0 0,-3.045 c -0.796,-0.464 -1.337,-1.317 -1.337,-2.304 0,-1.476 1.198,-2.674 2.674,-2.674 1.476,0 2.674,1.198 2.674,2.674 0,0.987 -0.54,1.84 -1.337,2.304 l 0,3.045 2.675,0 c 0.739,0 1.337,-0.598 1.337,-1.337 l 0,-1.708 c -0.797,-0.464 -1.337,-1.316 -1.337,-2.304 0,-1.476 1.198,-2.674 2.674,-2.674 1.476,0 2.674,1.198 2.674,2.674 0,0.987 -0.54,1.84 -1.337,2.304 m -8.023,12.405 c 0.738,0 1.337,-0.599 1.337,-1.337 0,-0.739 -0.599,-1.338 -1.337,-1.338 -0.738,0 -1.337,0.599 -1.337,1.338 0,0.738 0.599,1.337 1.337,1.337 m -6.686,-16.046 c -0.738,0 -1.337,0.598 -1.337,1.337 0,0.74 0.599,1.337 1.337,1.337 0.739,0 1.338,-0.597 1.338,-1.337 0,-0.739 -0.599,-1.337 -1.338,-1.337 m 6.686,0 c -0.738,0 -1.337,0.598 -1.337,1.337 0,0.74 0.599,1.337 1.337,1.337 0.738,0 1.337,-0.597 1.337,-1.337 0,-0.739 -0.599,-1.337 -1.337,-1.337 m 6.686,0 c -0.74,0 -1.337,0.598 -1.337,1.337 0,0.74 0.597,1.337 1.337,1.337 0.739,0 1.337,-0.597 1.337,-1.337 0,-0.739 -0.598,-1.337 -1.337,-1.337"
             style="fill:#ffffff;fill-opacity:1;fill-rule:nonzero;stroke:none"
             id="path270" />
        </g>
        <g
           id="g272"
           transform="translate(42.76,201.78)">
          <path
             inkscape:connector-curvature="0"
             d="m 0,0 0,1.44 c 0,3.181 -2.579,5.76 -5.76,5.76 -3.181,0 -5.76,-2.579 -5.76,-5.76 l 0,-1.44 c -0.795,0 -1.44,-0.645 -1.44,-1.44 l 0,-7.2 c 0,-0.796 0.645,-1.44 1.44,-1.44 l 11.52,0 c 0.796,0 1.44,0.644 1.44,1.44 l 0,7.2 C 1.44,-0.645 0.796,0 0,0 m -8.64,0 0,1.44 c 0,1.59 1.29,2.88 2.88,2.88 1.59,0 2.88,-1.29 2.88,-2.88 l 0,-1.44 -5.76,0 z"
             style="fill:#ffffff;fill-opacity:1;fill-rule:nonzero;stroke:none"
             id="path274" />
        </g>
        <g
           id="g276"
           transform="translate(36.44,70.048)">
          <path
             inkscape:connector-curvature="0"
             d="M 0,0 C 1.731,0 3.136,1.405 3.136,3.136 3.136,4.867 1.731,6.272 0,6.272 -1.731,6.272 -3.136,4.867 -3.136,3.136 -3.136,1.405 -1.731,0 0,0 m 1.568,-1.568 -3.136,0 c -2.597,0 -4.704,-2.106 -4.704,-4.704 l 0,-3.136 12.544,0 0,3.136 c 0,2.598 -2.107,4.704 -4.704,4.704"
             style="fill:#ffffff;fill-opacity:1;fill-rule:nonzero;stroke:none"
             id="path278" />
        </g>
        <g
           id="g280"
           transform="translate(342,586.08)">
          <path
             inkscape:connector-curvature="0"
             d="m 0,0 c -4.903,0 -8.88,-3.977 -8.88,-8.88 0,-4.903 3.977,-8.88 8.88,-8.88 4.903,0 8.88,3.977 8.88,8.88 C 8.88,-3.977 4.903,0 0,0 m -6.334,-5.22 0.418,-0.12 -0.349,-0.031 -0.203,-0.072 -0.051,-0.012 c 0.05,0.094 0.099,0.189 0.152,0.281 L -6.334,-5.22 z M 0,-16.28 c -0.229,0 -0.445,0.047 -0.67,0.068 l 0.384,0.306 0.023,0.191 -0.199,0.271 0.418,-0.059 0.461,1.051 0.581,0.357 0.319,0.787 0.264,0.756 -0.015,0.663 -0.363,0.228 -0.555,0.046 -0.547,0.117 0.096,0.192 -0.386,-0.109 0.094,0.564 -0.096,0.063 -0.404,0.224 -0.561,0.389 -0.783,0.25 -0.228,0.08 -0.168,-0.28 0.028,0.31 -0.456,-0.205 -0.693,-0.159 -0.155,-0.073 0.231,-0.108 0.173,0.126 0.096,-0.055 -0.087,-0.713 -0.163,-0.613 -0.089,-0.191 0.123,-0.323 0.367,-0.651 0.778,-0.76 0.129,-0.727 0.111,-1.591 0.048,-0.147 c -3.16,0.844 -5.506,3.703 -5.506,7.125 0,0.737 0.141,1.434 0.342,2.106 l 0.309,-0.536 0.003,-0.416 0.059,-0.264 0.116,-0.144 0.058,-0.192 0.094,-0.119 0.008,0.198 -0.086,0.764 0.06,-0.188 0.257,-0.546 0.577,-0.915 0.503,-0.21 0.454,-0.109 0.468,0.302 0.172,0.503 -0.662,-0.355 -0.343,0.374 0.075,0.503 0.57,0.459 0.444,-0.003 0.534,0.002 0.274,-0.549 0.093,0.297 0.299,0.687 0.379,0.309 0.113,0.271 0.296,0.234 0.404,0.223 0.164,0.191 0.361,0.172 0.301,0.065 -0.187,-0.218 0.531,0.216 -0.13,0.083 -0.157,0.178 0.061,0.198 -0.494,-0.136 0.633,0.249 0.864,0.22 -0.236,0.233 -0.119,0.638 -0.334,-0.119 -0.105,0.213 -0.382,0.194 -0.382,-0.262 -0.225,-0.438 -0.389,-0.398 -0.317,0.324 -0.444,0.209 -0.158,0.173 0.638,0.488 0.417,0.242 0.864,0.285 -0.55,-0.05 -0.128,0.263 -0.325,0.034 -0.065,-0.208 -0.347,-0.085 -0.55,0.07 -0.403,-0.09 -0.37,0.094 -0.552,0.142 -0.442,-0.013 c 1.249,0.962 2.792,1.557 4.487,1.557 0.833,0 1.622,-0.169 2.371,-0.425 L 2.026,-1.924 1.227,-2.119 0.855,-2.208 1.111,-2.406 1.643,-2.631 1.786,-2.883 1.591,-3.26 l 0.073,-0.69 0.692,0.334 0.894,0.397 0.693,0.12 0.092,0.104 -0.246,0.029 0.053,0.108 0.38,-0.061 -0.235,0.206 0.05,0.021 C 4.928,-3.275 5.674,-4.045 6.243,-4.943 L 6.075,-5.078 5.608,-5.332 5.369,-5.429 5.648,-5.736 5.549,-5.99 5.011,-5.958 4.857,-6.25 4.826,-6.719 l 0.273,-0.107 0.586,0.135 0.3,0.405 0.275,0.246 0.335,0.031 0.155,0.077 0.064,-0.059 C 6.992,-6.411 7.128,-6.854 7.225,-7.31 L 6.946,-7.188 6.645,-6.762 5.877,-6.845 5.557,-6.956 5.121,-6.952 4.695,-7.356 4.544,-7.652 4.328,-7.891 4.174,-8.042 3.91,-8.448 3.854,-8.658 3.789,-8.745 3.778,-9.373 l 0.009,-0.376 0.452,-0.618 0.461,-0.336 0.61,0.035 0.646,0.244 0.272,-0.229 0.293,-0.087 0.401,-0.292 -0.173,-0.588 0.075,-0.121 C 5.701,-14.405 3.065,-16.28 0,-16.28"
             style="fill:#ffffff;fill-opacity:1;fill-rule:nonzero;stroke:none"
             id="path282" />
        </g>
        <g
           id="g284"
           transform="translate(344.828,460.42)">
          <path
             inkscape:connector-curvature="0"
             d="m 0,0 -5.656,0 c -1.561,0 -2.828,-1.398 -2.828,-3.12 l 0,-12.48 c 0,-1.722 1.267,-3.12 2.828,-3.12 l 5.656,0 c 1.561,0 2.828,1.398 2.828,3.12 l 0,12.48 C 2.828,-1.398 1.561,0 0,0 m -2.828,-17.16 c -0.781,0 -1.414,0.697 -1.414,1.56 0,0.863 0.633,1.56 1.414,1.56 0.782,0 1.414,-0.697 1.414,-1.56 0,-0.863 -0.632,-1.56 -1.414,-1.56 m 4.242,4.68 -8.484,0 0,9.36 8.484,0 0,-9.36 z"
             style="fill:#ffffff;fill-opacity:1;fill-rule:nonzero;stroke:none"
             id="path286" />
        </g>
        <g
           id="g288"
           transform="translate(347.2966,331.907)">
          <path
             inkscape:connector-curvature="0"
             d="m 0,0 c -1.346,1.301 -3.221,2.11 -5.297,2.11 -2.077,0 -3.952,-0.809 -5.298,-2.111 l -5.185,-4.907 5.185,-4.905 c 1.346,-1.303 3.223,-2.111 5.298,-2.111 2.075,0 3.951,0.808 5.297,2.109 L 5.187,-4.908 0,0 z m -1.402,-8.513 c -1.035,-1.001 -2.419,-1.551 -3.893,-1.551 -1.476,0 -2.86,0.55 -3.909,1.567 l -3.795,3.589 3.809,3.605 c 1.035,1.002 2.418,1.553 3.893,1.553 1.475,0 2.857,-0.55 3.907,-1.564 l 3.797,-3.594 -3.809,-3.605 z m -7.826,3.605 c 0,-2.053 1.761,-3.719 3.931,-3.719 2.17,0 3.932,1.666 3.932,3.719 0,2.055 -1.762,3.72 -3.932,3.72 -2.17,0 -3.931,-1.665 -3.931,-3.72 m 1.311,1.24 c 0,0.685 0.585,1.24 1.31,1.24 0.723,0 1.31,-0.555 1.31,-1.24 0,-0.684 -0.587,-1.24 -1.31,-1.24 -0.725,0 -1.31,0.556 -1.31,1.24"
             style="fill:#ffffff;fill-opacity:1;fill-rule:nonzero;stroke:none"
             id="path290" />
        </g>
        <g
           id="g292"
           transform="translate(346.4928,197.34)">
          <path
             inkscape:connector-curvature="0"
             d="m 0,0 c 0,-2.386 -2.011,-4.32 -4.493,-4.32 -1.24,0 -2.341,0.505 -3.152,1.289 -0.586,0.564 -1.532,0.563 -2.118,0 -0.585,-0.563 -0.585,-1.473 0,-2.036 L -9.77,-5.075 c 1.352,-1.306 3.209,-2.125 5.277,-2.125 3.07,0 5.7,1.778 6.856,4.32 l 3.627,0 L 5.99,0 0,0 z m -4.493,4.32 c 1.242,0 2.341,-0.505 3.153,-1.289 l 0.007,0.007 c 0.586,-0.563 1.532,-0.563 2.118,0 0.585,0.563 0.585,1.474 0,2.037 -1.353,1.304 -3.208,2.125 -5.278,2.125 -3.068,0 -5.7,-1.778 -6.856,-4.32 l -3.627,0 0,-2.88 5.99,0 c 0,2.386 2.012,4.32 4.493,4.32 M -6.739,0 c 0,-1.194 1.006,-2.16 2.246,-2.16 1.242,0 2.247,0.966 2.247,2.16 0,1.194 -1.005,2.16 -2.247,2.16 -1.24,0 -2.246,-0.966 -2.246,-2.16"
             style="fill:#ffffff;fill-opacity:1;fill-rule:nonzero;stroke:none"
             id="path294" />
        </g>
      </g>
    </g>
    <g
       id="g300"
       transform="matrix(1.25,0,0,-1.25,417.42459,902.15238)">
      <path
         inkscape:connector-curvature="0"
         d="m 0,0 0,3.92 3.92,0 L 0,0 z"
         style="fill:#ffffff;fill-opacity:1;fill-rule:nonzero;stroke:none"
         id="path302" />
    </g>
    <path
       inkscape:connector-curvature="0"
       d="m 423.95797,903.78613 9.8,0 0,6.53375 -9.8,0 0,-6.53375 z"
       style="fill:#ffffff;fill-opacity:1;fill-rule:nonzero;stroke:none"
       id="path304" />
    <g
       id="g306"
       transform="matrix(1.25,0,0,-1.25,435.39134,897.25238)">
      <path
         inkscape:connector-curvature="0"
         d="m 0,0 3.92,0 0,-3.92 L 0,0 z"
         style="fill:#ffffff;fill-opacity:1;fill-rule:nonzero;stroke:none"
         id="path308" />
    </g>
    <g
       id="g310"
       transform="matrix(1.25,0,0,-1.25,417.42459,911.95238)">
      <path
         inkscape:connector-curvature="0"
         d="m 0,0 0,-3.92 3.92,0 L 0,0 z"
         style="fill:#ffffff;fill-opacity:1;fill-rule:nonzero;stroke:none"
         id="path312" />
    </g>
    <g
       id="g314"
       transform="matrix(1.25,0,0,-1.25,435.39134,916.85238)">
      <path
         inkscape:connector-curvature="0"
         d="m 0,0 3.92,0 0,3.92 L 0,0 z"
         style="fill:#ffffff;fill-opacity:1;fill-rule:nonzero;stroke:none"
         id="path316" />
    </g>
    <g
       id="g318"
       transform="matrix(1.25,0,0,-1.25,435.39134,902.15238)">
      <path
         inkscape:connector-curvature="0"
         d="M 0,0 2.613,3.92 3.92,2.613 0,0 z"
         style="fill:#ffffff;fill-opacity:1;fill-rule:nonzero;stroke:none"
         id="path320" />
    </g>
    <g
       id="g322"
       transform="matrix(1.25,0,0,-1.25,435.39134,911.95238)">
      <path
         inkscape:connector-curvature="0"
         d="M 0,0 3.92,-2.613 2.613,-3.92 0,0 z"
         style="fill:#ffffff;fill-opacity:1;fill-rule:nonzero;stroke:none"
         id="path324" />
    </g>
    <g
       id="g326"
       transform="matrix(1.25,0,0,-1.25,417.42459,915.21901)">
      <path
         inkscape:connector-curvature="0"
         d="M 0,0 3.92,2.613 1.307,-1.307 0,0 z"
         style="fill:#ffffff;fill-opacity:1;fill-rule:nonzero;stroke:none"
         id="path328" />
    </g>
    <g
       id="g330"
       transform="matrix(1.25,0,0,-1.25,417.42459,898.88576)">
      <path
         inkscape:connector-curvature="0"
         d="M 0,0 1.307,1.307 3.92,-2.613 0,0 z"
         style="fill:#ffffff;fill-opacity:1;fill-rule:nonzero;stroke:none"
         id="path332" />
    </g>
    <text
       style="font-size:15px"
       y="1013.2615"
       x="318.8765"
       id="text334">
      <tspan
         style="font-size:15px;font-variant:normal;font-weight:bold;font-stretch:normal;writing-mode:lr-tb;fill:#4f4f51;fill-opacity:1;fill-rule:nonzero;stroke:none;font-family:Open Sans;-inkscape-font-specification:OpenSans-Bold"
         x="318.8765 333.3815 342.66647 349.47647 358.97153 368.39151 375.20151 384.0665 391.52151 398.97653 403.2515 412.53653 419.34653"
         y="1013.2615"
         sodipodi:role="line"
         id="tspan336">WordPress.org</tspan>
    </text>
    <text
       xml:space="preserve"
       style="font-size:13.75px;font-style:normal;font-variant:normal;font-weight:bold;font-stretch:normal;line-height:125%;letter-spacing:0px;word-spacing:0px;fill:#000000;fill-opacity:1;stroke:none;font-family:Open Sans;-inkscape-font-specification:Sans Bold"
       x="472.24628"
       y="230.09801"
       id="text4048"
       sodipodi:linespacing="125%"><tspan
         sodipodi:role="line"
         id="tspan4050"
         x="472.24628"
         y="230.09801">O poder de ser global</tspan></text>
    <text
       xml:space="preserve"
       style="font-size:13.75px;font-style:normal;font-variant:normal;font-weight:normal;font-stretch:normal;line-height:125%;letter-spacing:0px;word-spacing:0px;fill:#000000;fill-opacity:1;stroke:none;font-family:Open Sans;-inkscape-font-specification:Sans"
       x="85.714287"
       y="249.50502"
       id="text4084"
       sodipodi:linespacing="125%"><tspan
         sodipodi:role="line"
         id="tspan4086"
         x="85.714287"
         y="249.50502"
         style="font-size:11.86999989px">WordPress é um software de código aberto </tspan><tspan
         sodipodi:role="line"
         x="85.714287"
         y="264.34253"
         style="font-size:11.86999989px"
         id="tspan4088">e sem custo. Você é livre para fazer mudanças</tspan><tspan
         sodipodi:role="line"
         x="85.714287"
         y="279.18002"
         style="font-size:11.86999989px"
         id="tspan4090">no software, criar conteúdo, e</tspan><tspan
         sodipodi:role="line"
         x="85.714287"
         y="294.01755"
         style="font-size:11.86999989px"
         id="tspan4092">publicar o que você quiser.</tspan></text>
    <text
       xml:space="preserve"
       style="font-size:11.86999989px;font-style:normal;font-variant:normal;font-weight:normal;font-stretch:normal;line-height:125%;letter-spacing:0px;word-spacing:0px;fill:#000000;fill-opacity:1;stroke:none;font-family:Open Sans;-inkscape-font-specification:Sans"
       x="472.85715"
       y="249.42967"
       id="text4094"
       sodipodi:linespacing="125%"><tspan
         sodipodi:role="line"
         id="tspan4096"
         x="472.85715"
         y="249.42967">O WordPress tem uma comunidade ativa </tspan><tspan
         sodipodi:role="line"
         x="472.85715"
         y="264.26718"
         id="tspan4098">mantendo traduções da interface do usuário</tspan><tspan
         sodipodi:role="line"
         x="472.85715"
         y="279.10468"
         id="tspan4102">para mais de 100 idiomas e o software</tspan><tspan
         sodipodi:role="line"
         x="472.85715"
         y="293.9422"
         id="tspan4106">suporta conteúdo multilingual.</tspan></text>
    <text
       xml:space="preserve"
       style="font-size:11.86999989px;font-style:normal;font-variant:normal;font-weight:normal;font-stretch:normal;line-height:125%;letter-spacing:0px;word-spacing:0px;fill:#000000;fill-opacity:1;stroke:none;font-family:Open Sans;-inkscape-font-specification:Sans"
       x="83.571426"
       y="483.07648"
       id="text4108"
       sodipodi:linespacing="125%"><tspan
         sodipodi:role="line"
         id="tspan4110"></tspan></text>
    <flowRoot
       xml:space="preserve"
       id="flowRoot4112"
       style="font-size:11.86999989px;font-style:normal;font-variant:normal;font-weight:normal;font-stretch:normal;line-height:125%;letter-spacing:0px;word-spacing:0px;fill:#000000;fill-opacity:1;stroke:none;font-family:Open Sans;-inkscape-font-specification:Sans"
       transform="translate(9.6506577,-2.1428571)"><flowRegion
         id="flowRegion4114"><rect
           id="rect4116"
           width="277.14285"
           height="76.428581"
           x="76.428574"
           y="394.50504" /></flowRegion><flowPara
         id="flowPara4118">Qualquer um pode criar e gerenciar um website com WordPress sem codificar. Desde instalar um tema a publicar couteúdo com o amigável editor visual, o WordPress é uma grande ferramenta para projetos de qualquer tamanho.</flowPara></flowRoot>    <flowRoot
       xml:space="preserve"
       id="flowRoot4120"
       style="font-size:11.86999989px;font-style:normal;font-variant:normal;font-weight:normal;font-stretch:normal;line-height:125%;letter-spacing:0px;word-spacing:0px;fill:#000000;fill-opacity:1;stroke:none;font-family:Open Sans;-inkscape-font-specification:Sans"
       transform="translate(0,-5.6300104)"><flowRegion
         id="flowRegion4122"><rect
           id="rect4124"
           width="241.42857"
           height="90"
           x="466.42856"
           y="398.07648" /></flowRegion><flowPara
         id="flowPara4126">Publique independente de onde você está. Temas e imagens responsivas entregam conteúdo mais rápido para seus visitantes, e com o painel administrativo responsivo fica fácil gerenciar seu site.</flowPara></flowRoot>    <flowRoot
       xml:space="preserve"
       id="flowRoot4128"
       style="font-size:11.86999989px;font-style:normal;font-variant:normal;font-weight:normal;font-stretch:normal;line-height:125%;letter-spacing:0px;word-spacing:0px;fill:#000000;fill-opacity:1;stroke:none;font-family:Open Sans;-inkscape-font-specification:Sans"
       transform="translate(-0.71428572,-0.71428572)"><flowRegion
         id="flowRegion4130"><rect
           id="rect4132"
           width="258.57141"
           height="95.714279"
           x="86.428574"
           y="555.93359" /></flowRegion><flowPara
         id="flowPara4134">Precisa de uma loja virtual ou integrar com outras aplicações e dados? Com mais de 10.000 temas, mais de 40.000 plugins, e APIs robustas, o WordPress pode ser exatamente o que você precisa.</flowPara></flowRoot>    <flowRoot
       xml:space="preserve"
       id="flowRoot4136"
       style="font-size:11.86999989px;font-style:normal;font-variant:normal;font-weight:normal;font-stretch:normal;line-height:125%;letter-spacing:0px;word-spacing:0px;fill:#000000;fill-opacity:1;stroke:none;font-family:Open Sans;-inkscape-font-specification:Sans"
       transform="translate(-1.4285714,-2.8571429)"><flowRegion
         id="flowRegion4138"><rect
           id="rect4140"
           width="257.85715"
           height="87.14286"
           x="467.85715"
           y="557.36218" /></flowRegion><flowPara
         id="flowPara4142">O WordPress está sempre melhorando então qualquer um pode perceber, entender, navegar, e interagir bem com a internet. WordPress é feito por todos.</flowPara></flowRoot>    <flowRoot
       xml:space="preserve"
       id="flowRoot4144"
       style="font-size:11.86999989px;font-style:normal;font-variant:normal;font-weight:normal;font-stretch:normal;line-height:125%;letter-spacing:0px;word-spacing:0px;fill:#000000;fill-opacity:1;stroke:none;font-family:Open Sans;-inkscape-font-specification:Sans"
       transform="translate(-1.4285714,-8.5759009)"><flowRegion
         id="flowRegion4146"><rect
           id="rect4148"
           width="249.28572"
           height="85"
           x="85.714287"
           y="717.36218" /></flowRegion><flowPara
         id="flowPara4150">Atualizações de segurança automáticas, um time de segurança dedicado, e controle detalhados dos acessos do usuário fazem o WordPress confiável por muitas das grandes marcas ao redor do mundo.</flowPara></flowRoot>    <flowRoot
       xml:space="preserve"
       id="flowRoot4152"
       style="font-size:11.86999989px;font-style:normal;font-variant:normal;font-weight:normal;font-stretch:normal;line-height:125%;letter-spacing:0px;word-spacing:0px;fill:#000000;fill-opacity:1;stroke:none;font-family:Open Sans;-inkscape-font-specification:Sans"
       transform="translate(-7.8139209,-4.2749927)"><flowRegion
         id="flowRegion4154"><rect
           id="rect4156"
           width="245.71428"
           height="92.14286"
           x="474.28571"
           y="713.07648" /></flowRegion><flowPara
         id="flowPara4158">O WordPress se conecta facilmente com Twitter, Facebook, e outras redes sociais para compartilhar seu conteúdo em todas as plataformas and e incorporar as atualizações sociais no seu site.</flowPara></flowRoot>    <flowRoot
       xml:space="preserve"
       id="flowRoot4160"
       style="font-size:11.86999989px;font-style:normal;font-variant:normal;font-weight:normal;font-stretch:normal;line-height:125%;letter-spacing:0px;word-spacing:0px;fill:#000000;fill-opacity:1;stroke:none;font-family:Open Sans;-inkscape-font-specification:Sans"
       transform="translate(0,-4.6958961)"><flowRegion
         id="flowRegion4162"><rect
           id="rect4164"
           width="274.28574"
           height="96.428574"
           x="85"
           y="878.79077" /></flowRegion><flowPara
         id="flowPara4166">Conhecimento da comunidade alcançável. De foruns online a encontros locais e WordCamps, os usuários WordPress estão ensinando e aprendendo em todos os lugares. Existem mais de 2.000 eventos em 38 países cada ano.</flowPara></flowRoot>    <flowRoot
       xml:space="preserve"
       id="flowRoot4168"
       style="font-size:11.86999989px;font-style:normal;font-variant:normal;font-weight:normal;font-stretch:normal;line-height:125%;letter-spacing:0px;word-spacing:0px;fill:#000000;fill-opacity:1;stroke:none;font-family:Open Sans;-inkscape-font-specification:Sans"><flowRegion
         id="flowRegion4170"><rect
           id="rect4172"
           width="261.42856"
           height="89.285706"
           x="467.85715"
           y="874.50507" /></flowRegion><flowPara
         id="flowPara4176">WordPress é escalável para atender bilhões de visualizações de páginas num mês quando usado para sites como o Facebook's Newsroom e CNN. Hospede milhões de websites com a funcionalidade multisite em uma simples instalação.</flowPara></flowRoot>  </g>
</svg>
